<svg xmlns="http://www.w3.org/2000/svg" version="1.1" xmlns:xlink="http://www.w3.org/1999/xlink" xmlns:svgjs="http://svgjs.dev/svgjs" width="1500" height="1500" viewBox="0 0 1500 1500"><rect width="1500" height="1500" fill="#ffffff"></rect><g transform="matrix(0.6666666666666666,0,0,0.6666666666666666,249.39393939393938,612.9923377113164)"><svg viewBox="0 0 396 109" data-background-color="#90adbb" preserveAspectRatio="xMidYMid meet" height="412" width="1500" xmlns="http://www.w3.org/2000/svg" xmlns:xlink="http://www.w3.org/1999/xlink"><g id="tight-bounds" transform="matrix(1,0,0,1,0.2400000000000091,-0.12924081504911555)"><svg viewBox="0 0 395.52 109.25848163009826" height="109.25848163009826" width="395.52"><g><svg viewBox="0 0 395.52 109.25848163009826" height="109.25848163009826" width="395.52"><g transform="matrix(1,0,0,1,0,65.7175508815851)"><svg viewBox="0 0 395.52 43.540930748513155" height="43.540930748513155" width="395.52"><g id="textblocktransform"><svg viewBox="0 0 395.52 43.540930748513155" height="43.540930748513155" width="395.52" id="textblock"><g><svg viewBox="0 0 395.52 23.483897503938973" height="23.483897503938973" width="395.52"><g transform="matrix(1,0,0,1,0,0)"><svg width="395.52" viewBox="0 -35.8 602.9 35.8" height="23.483897503938973" data-palette-color="#f6f6f6"><path d="M25.25-2.15L31.5-2.15 31.5 0 0 0 0-2.15 6.4-2.15Q4-3.4 2-5.25L2-5.25 5.7-9.7Q11-5.1 16.7-5.1L16.7-5.1Q19.55-5.1 21.23-6.33 22.9-7.55 22.9-9.58 22.9-11.6 21.33-12.73 19.75-13.85 15.9-14.78 12.05-15.7 10.05-16.48 8.05-17.25 6.5-18.5L6.5-18.5Q3.4-20.85 3.4-25.7 3.4-30.55 6.93-33.18 10.45-35.8 15.65-35.8L15.65-35.8Q19-35.8 22.3-34.7 25.6-33.6 28-31.6L28-31.6 24.85-27.15Q23.3-28.55 20.65-29.45 18-30.35 15.43-30.35 12.85-30.35 11.2-29.3 9.55-28.25 9.55-26.13 9.55-24 11.2-22.88 12.85-21.75 18.23-20.45 23.6-19.15 26.33-16.8 29.05-14.45 29.05-10.2L29.05-10.2Q29.05-5.05 25.25-2.15L25.25-2.15ZM70.35 0L70.35-2.15 65.5-2.15 65.5-34.95 59.6-34.95 59.6-19.8 42.25-19.8 42.25-34.95 36.35-34.95 36.35 0 42.25 0 42.25-14.3 59.6-14.3 59.6 0 70.35 0ZM31.5-2.15L36.35-2.15 36.35 0 31.5 0 31.5-2.15ZM103.15-2.15L108-2.15 108 0 97.19 0 88.84-11.75 81.09-11.75 81.09 0 70.34 0 70.34-2.15 75.19-2.15 75.19-34.95 88.19-34.95Q96.19-34.95 99.64-32.25 103.09-29.55 103.09-23.6L103.09-23.6Q103.09-14.95 95.55-12.7L95.55-12.7 103.15-2.15ZM88.44-17.1Q93.44-17.1 95.25-18.65 97.05-20.2 97.05-23.63 97.05-27.05 95.19-28.33 93.34-29.6 88.59-29.6L88.59-29.6 81.09-29.6 81.09-17.1 88.44-17.1ZM106.74-2.15L111.59-2.15 111.59-34.95 117.49-34.95 117.49-2.15 122.34-2.15 122.34 0 106.74 0 106.74-2.15ZM122.34-2.15L127.19-2.15 127.19-34.95 133.09-34.95 153.39-8.85 153.39-34.95 159.29-34.95 159.29-2.15 164.14-2.15 164.14 0 152.89 0 133.09-25.5 133.09 0 122.34 0 122.34-2.15ZM200.29-2.15L206.09-2.15 206.09 0 194.94 0 191.44-7.95 173.94-7.95 170.44 0 159.29 0 159.29-2.15 165.09-2.15 179.54-34.95 185.84-34.95 200.29-2.15ZM176.34-13.4L189.04-13.4 182.69-27.8 176.34-13.4ZM216.54-2.15L228.69-2.15 228.69 0 198.49 0 198.49-2.15 210.64-2.15 210.64-29.55 200.04-29.55 200.04-34.95 227.14-34.95 227.14-29.55 216.54-29.55 216.54-2.15ZM267.53 0L267.53-2.15 262.68-2.15 262.68-34.95 256.78-34.95 256.78-19.8 239.43-19.8 239.43-34.95 233.53-34.95 233.53 0 239.43 0 239.43-14.3 256.78-14.3 256.78 0 267.53 0ZM228.68-2.15L233.53-2.15 233.53 0 228.68 0 228.68-2.15ZM285.38-2.15L295.08-2.15 295.08 0 267.53 0 267.53-2.15 273.03-2.15Q270.83-3.15 269.08-5L269.08-5 272.43-9.65Q275.83-6.4 279.08-6.4L279.08-6.4Q281.38-6.4 283.01-7.95 284.63-9.5 284.63-12.6L284.63-12.6 284.63-29.65 273.53-29.65 273.53-34.95 290.53-34.95 290.53-12.9Q290.53-5.1 285.38-2.15L285.38-2.15ZM295.08-2.15L299.93-2.15 299.93-34.95 305.83-34.95 305.83-2.15 310.68-2.15 310.68 0 295.08 0 295.08-2.15ZM310.68-2.15L324.38-2.15 324.38 0 310.68 0 310.68-2.15ZM354.62-2.15L361.17-2.15 361.17 0 324.37 0 324.37-2.15 335.47-2.15Q331.52-4.5 329.25-8.55 326.97-12.6 326.97-17.7L326.97-17.7Q326.97-25.4 332.3-30.6 337.62-35.8 345.75-35.8 353.87-35.8 359.32-29.8L359.32-29.8 355.57-25.7Q353.07-28.1 350.85-29.05 348.62-30 345.62-30L345.62-30Q340.32-30 336.72-26.58 333.12-23.15 333.12-17.82 333.12-12.5 336.7-8.93 340.27-5.35 345.17-5.35L345.17-5.35Q348.22-5.35 350.42-6.38 352.62-7.4 355.02-9.65L355.02-9.65 358.82-5.75Q356.62-3.35 354.62-2.15L354.62-2.15ZM400.02 0L400.02-2.15 395.17-2.15 395.17-34.95 389.27-34.95 389.27-19.8 371.92-19.8 371.92-34.95 366.02-34.95 366.02 0 371.92 0 371.92-14.3 389.27-14.3 389.27 0 400.02 0ZM361.17-2.15L366.02-2.15 366.02 0 361.17 0 361.17-2.15ZM400.02-2.15L404.87-2.15 404.87-34.95 429.42-34.95 429.42-29.4 410.77-29.4 410.77-20.15 427.52-20.15 427.52-14.9 410.77-14.9 410.77-5.55 430.02-5.55 430.02-2.15 434.87-2.15 434.87 0 400.02 0 400.02-2.15ZM477.02-2.15L481.87-2.15 481.87 0 471.12 0 471.12-27.3 458.92-3.05 455.62-3.05 443.47-27.3 443.47 0 432.72 0 432.72-2.15 437.57-2.15 437.57-34.95 446.77-34.95 457.32-13 467.87-34.95 477.02-34.95 477.02-2.15ZM481.86-2.15L486.71-2.15 486.71-34.95 492.61-34.95 492.61-2.15 497.46-2.15 497.46 0 481.86 0 481.86-2.15ZM527.71-2.15L534.26-2.15 534.26 0 497.46 0 497.46-2.15 508.56-2.15Q504.61-4.5 502.34-8.55 500.06-12.6 500.06-17.7L500.06-17.7Q500.06-25.4 505.39-30.6 510.71-35.8 518.84-35.8 526.96-35.8 532.41-29.8L532.41-29.8 528.66-25.7Q526.16-28.1 523.94-29.05 521.71-30 518.71-30L518.71-30Q513.41-30 509.81-26.58 506.21-23.15 506.21-17.82 506.21-12.5 509.79-8.93 513.36-5.35 518.26-5.35L518.26-5.35Q521.31-5.35 523.51-6.38 525.71-7.4 528.11-9.65L528.11-9.65 531.91-5.75Q529.71-3.35 527.71-2.15L527.71-2.15ZM570.41-2.15L576.21-2.15 576.21 0 565.06 0 561.56-7.95 544.06-7.95 540.56 0 529.41 0 529.41-2.15 535.21-2.15 549.66-34.95 555.96-34.95 570.41-2.15ZM546.46-13.4L559.16-13.4 552.81-27.8 546.46-13.4ZM598.06-2.15L602.9-2.15 602.9 0 571.36 0 571.36-2.15 576.21-2.15 576.21-34.95 582.11-34.95 582.11-5.6 598.06-5.6 598.06-2.15Z" opacity="1" transform="matrix(1,0,0,1,0,0)" fill="#000000" class="wordmark-text-0" data-fill-palette-color="primary" id="text-0"></path></svg></g></svg></g><g transform="matrix(1,0,0,1,147.55462200061476,29.027882091078872)"><svg viewBox="0 0 100.41075599877045 14.513048657434284" height="14.513048657434284" width="100.41075599877045"><g transform="matrix(1,0,0,1,0,0)"><svg width="100.41075599877045" viewBox="2.4 -35.15 246.63 35.65" height="14.513048657434284" data-palette-color="#f6f6f6"><path d="M13.8-31.75L13.8-31.75Q6.3-31.75 6.3-26.1L6.3-26.1Q6.3-22.95 8.03-21.78 9.75-20.6 15.03-19.43 20.3-18.25 22.5-16.38 24.7-14.5 24.7-10.2L24.7-10.2Q24.7 0.45 13.65 0.45L13.65 0.45Q10 0.45 4.5-0.4L4.5-0.4 2.7-0.65 3.1-3.85Q9.9-2.95 13.45-2.95L13.45-2.95Q20.85-2.95 20.85-9.9L20.85-9.9Q20.85-12.7 19.23-13.93 17.6-15.15 13.15-16L13.15-16Q7.3-17.25 4.85-19.23 2.4-21.2 2.4-25.85L2.4-25.85Q2.4-35.15 13.55-35.15L13.55-35.15Q17.2-35.15 22.3-34.4L22.3-34.4 24-34.15 23.65-30.9Q16.7-31.75 13.8-31.75ZM35.2 0L31.35 0 31.35-34.6 35.2-34.6 35.2 0ZM47.5 0L43.65 0 43.65-34.6 50.85-34.6 64.09-3.4 65.15-3.4 65.15-34.6 68.95-34.6 68.95 0 61.9 0 48.45-31.2 47.5-31.2 47.5 0ZM98.19-3.85L98.34-0.55Q93.19 0.5 89.09 0.5 84.99 0.5 82.47-0.63 79.94-1.75 78.57-4.13 77.19-6.5 76.67-9.58 76.14-12.65 76.14-17.25 76.14-21.85 76.67-24.98 77.19-28.1 78.57-30.5 79.94-32.9 82.44-34 84.94-35.1 88.94-35.1 92.94-35.1 98.34-34L98.34-34 98.19-30.75Q93.14-31.65 89.19-31.65L89.19-31.65Q83.69-31.65 81.92-28.38 80.14-25.1 80.14-17.2L80.14-17.2Q80.14-13.25 80.47-10.85 80.79-8.45 81.74-6.53 82.69-4.6 84.52-3.78 86.34-2.95 89.87-2.95 93.39-2.95 98.19-3.85L98.19-3.85ZM125.69 0L104.64 0 104.64-34.6 125.69-34.6 125.69-31.2 108.49-31.2 108.49-19.25 122.69-19.25 122.69-15.9 108.49-15.9 108.49-3.4 125.69-3.4 125.69 0ZM163.59-3.35L163.59 0 142.49 0 142.49-3.25 152.14-13.4Q154.64-16 155.79-17.35 156.94-18.7 157.86-20.55 158.79-22.4 158.79-24.25L158.79-24.25Q158.79-27.45 157.04-28.75 155.29-30.05 151.59-30.05L151.59-30.05Q148.34-30.05 144.34-29.2L144.34-29.2 143.04-28.95 142.74-32.15Q147.49-33.5 152.54-33.5 157.59-33.5 160.16-31.38 162.74-29.25 162.74-24.65L162.74-24.65Q162.74-21.15 161.19-18.55 159.64-15.95 155.84-12.3L155.84-12.3 147.04-3.35 163.59-3.35ZM180.98-33.55L180.98-33.55Q185.08-33.55 187.63-32L187.63-32Q193.03-28.8 193.03-16L193.03-16Q193.03-6.95 190.03-3.23 187.03 0.5 181.03 0.5 175.03 0.5 172.01-3.18 168.98-6.85 168.98-16.28 168.98-25.7 171.96-29.63 174.93-33.55 180.98-33.55ZM181.03-30.1L181.03-30.1Q178.18-30.1 176.53-28.9L176.53-28.9Q172.98-26.45 172.98-15.95L172.98-15.95Q172.98-8.55 174.93-5.73 176.88-2.9 181.03-2.9 185.18-2.9 187.13-5.75 189.08-8.6 189.08-16.32 189.08-24.05 187.21-27.08 185.33-30.1 181.03-30.1ZM219.58-3.35L219.58 0 198.48 0 198.48-3.25 208.13-13.4Q210.63-16 211.78-17.35 212.93-18.7 213.86-20.55 214.78-22.4 214.78-24.25L214.78-24.25Q214.78-27.45 213.03-28.75 211.28-30.05 207.58-30.05L207.58-30.05Q204.33-30.05 200.33-29.2L200.33-29.2 199.03-28.95 198.73-32.15Q203.48-33.5 208.53-33.5 213.58-33.5 216.16-31.38 218.73-29.25 218.73-24.65L218.73-24.65Q218.73-21.15 217.18-18.55 215.63-15.95 211.83-12.3L211.83-12.3 203.03-3.35 219.58-3.35ZM236.98-33.55L236.98-33.55Q241.08-33.55 243.63-32L243.63-32Q249.03-28.8 249.03-16L249.03-16Q249.03-6.95 246.03-3.23 243.03 0.5 237.03 0.5 231.03 0.5 228-3.18 224.98-6.85 224.98-16.28 224.98-25.7 227.95-29.63 230.93-33.55 236.98-33.55ZM237.03-30.1L237.03-30.1Q234.18-30.1 232.53-28.9L232.53-28.9Q228.98-26.45 228.98-15.95L228.98-15.95Q228.98-8.55 230.93-5.73 232.88-2.9 237.03-2.9 241.18-2.9 243.13-5.75 245.08-8.6 245.08-16.32 245.08-24.05 243.2-27.08 241.33-30.1 237.03-30.1Z" opacity="1" transform="matrix(1,0,0,1,0,0)" fill="#000000" class="slogan-text-1" data-fill-palette-color="secondary" id="text-1"></path></svg></g></svg></g></svg></g></svg></g><g transform="matrix(1,0,0,1,167.6732168527774,0)"><svg viewBox="0 0 60.17356629444518 60.173566294445195" height="60.173566294445195" width="60.17356629444518"><g><svg></svg></g><g id="icon-0"><svg viewBox="0 0 60.17356629444518 60.173566294445195" height="60.173566294445195" width="60.17356629444518"><g><path transform="scale(0.60174,0.60174)" d="M30 100c-16.569 0-30-13.431-30-30v-40c0-16.569 13.431-30 30-30h40c16.569 0 30 13.431 30 30v40c0 16.569-13.431 30-30 30z" fill="#000000" fill-rule="nonzero" stroke="none" stroke-width="1" stroke-linecap="butt" stroke-linejoin="miter" stroke-miterlimit="10" stroke-dasharray="" stroke-dashoffset="0" font-family="none" font-weight="none" font-size="none" text-anchor="none" style="mix-blend-mode: normal" data-fill-palette-color="accent"></path></g><g transform="matrix(1,0,0,1,12.769878919978837,12.034713258889042)"><svg viewBox="0 0 34.63380845448751 36.10413977666711" height="36.10413977666711" width="34.63380845448751"><g><svg xmlns="http://www.w3.org/2000/svg" data-name="Layer 1" viewBox="4.330049271125256 2.494696203404251 86.34441534090142 90.01005028075635" x="0" y="0" height="36.10413977666711" width="34.63380845448751" class="icon-cg-0" data-fill-palette-color="quaternary" id="cg-0"><path class="cls-1" d="M57.782 19.981A1.584 1.584 0 1 0 59.366 18.4a1.581 1.581 0 0 0-1.584 1.582Zm6.982 9.411a1.584 1.584 0 1 0 1.583-1.582 1.581 1.581 0 0 0-1.583 1.582ZM69.316 47.5A1.584 1.584 0 1 0 70.9 45.918 1.585 1.585 0 0 0 69.316 47.5ZM66.347 64.026a1.581 1.581 0 1 0 1.584 1.583 1.581 1.581 0 0 0-1.584-1.583Zm-6.981 9.412a1.582 1.582 0 1 0 1.583 1.58 1.581 1.581 0 0 0-1.583-1.58Zm25.29-16.719a12.475 12.475 0 0 0-8.209-4.982 1.107 1.107 0 1 0-0.332 2.189 10.272 10.272 0 0 1 4.444 18.5 11.548 11.548 0 0 0-4.436-6.94 1.112 1.112 0 0 0-1.55 0.234 1.123 1.123 0 0 0 0.232 1.549A9.28 9.28 0 1 1 62.318 80.851a1.107 1.107 0 0 0-1.667 1.456 11.565 11.565 0 0 0 8.681 3.926c0.349 0 0.7-0.016 1.037-0.047A11.64 11.64 0 0 1 48.6 83.133V66.292H53.2l3.49 6.042a3.789 3.789 0 1 0 2.679-1.109 3.868 3.868 0 0 0-0.722 0.07L54.8 64.633a1.107 1.107 0 0 0-0.954-0.554H48.6v-7.2H56.6l6.675 6.505a3.755 3.755 0 0 0-0.721 2.223 3.8 3.8 0 1 0 2.512-3.569l-7.247-7.058a1.1 1.1 0 0 0-0.771-0.314H48.6V48.606H67.276a3.795 3.795 0 1 0 0-2.213H48.6V40.332h8.441a1.1 1.1 0 0 0 0.771-0.314l7.247-7.058a3.793 3.793 0 1 0-2.512-3.568 3.75 3.75 0 0 0 0.721 2.222l-6.675 6.5H48.6v-7.2h5.24a1.108 1.108 0 0 0 0.954-0.553l3.847-6.663a3.8 3.8 0 1 0-1.957-1.038L53.2 28.708H48.6V11.865A11.64 11.64 0 0 1 70.369 8.814a11.579 11.579 0 0 0-9.718 3.879 1.107 1.107 0 0 0 1.667 1.456A9.281 9.281 0 1 1 74.805 27.731a1.12 1.12 0 0 0-0.232 1.546 1.11 1.11 0 0 0 1.55 0.236 11.557 11.557 0 0 0 4.436-6.94 10.272 10.272 0 0 1-4.444 18.5 1.106 1.106 0 0 0 0.166 2.2 1.257 1.257 0 0 0 0.166-0.013 12.474 12.474 0 0 0 8.209-4.981 10.07 10.07 0 0 1 0 18.438Zm-47.438 18.3A1.584 1.584 0 1 0 35.634 76.6a1.586 1.586 0 0 0 1.584-1.583Zm-6.982-9.409a1.584 1.584 0 1 0-1.583 1.579 1.581 1.581 0 0 0 1.583-1.579ZM25.676 47.5A1.58 1.58 0 1 0 24.1 49.081 1.579 1.579 0 0 0 25.676 47.5Zm2.977-16.526a1.582 1.582 0 1 0-1.584-1.582 1.581 1.581 0 0 0 1.584 1.582Zm6.981-9.412a1.582 1.582 0 1 0-1.583-1.581 1.586 1.586 0 0 0 1.583 1.581ZM34.349 92.483a11.7 11.7 0 0 1-9.718-6.3c0.34 0.031 0.688 0.047 1.037 0.047a11.57 11.57 0 0 0 8.681-3.926 1.106 1.106 0 0 0-1.666-1.456A9.281 9.281 0 1 1 20.2 67.27a1.115 1.115 0 0 0 0.224-1.549 1.1 1.1 0 0 0-1.542-0.234 11.508 11.508 0 0 0-4.436 6.94 10.272 10.272 0 0 1 4.444-18.5 1.107 1.107 0 1 0-0.332-2.189 12.452 12.452 0 0 0-8.208 4.982 10.069 10.069 0 0 1 0-18.438 12.45 12.45 0 0 0 8.208 4.981 1.27 1.27 0 0 0 0.166 0.013 1.107 1.107 0 0 0 0.166-2.2 10.272 10.272 0 0 1-4.444-18.5 11.517 11.517 0 0 0 4.436 6.94 1.1 1.1 0 0 0 1.542-0.236 1.111 1.111 0 0 0-0.224-1.546A9.281 9.281 0 1 1 32.683 14.149a1.106 1.106 0 0 0 1.666-1.456 11.579 11.579 0 0 0-9.718-3.879A11.64 11.64 0 0 1 46.4 11.865V28.708H41.8l-3.49-6.041a3.8 3.8 0 1 0-1.957 1.038L40.2 30.368a1.108 1.108 0 0 0 0.954 0.553H46.4v7.2h-8l-6.667-6.5a3.811 3.811 0 1 0-1.791 1.346l7.247 7.058a1.084 1.084 0 0 0 0.763 0.314H46.4v6.061H27.724a3.8 3.8 0 1 0 0 2.213H46.4v6.062H37.948a1.08 1.08 0 0 0-0.763 0.314L29.938 62.04a3.795 3.795 0 1 0 1.791 1.346L38.4 56.881h8v7.2h-5.24a1.107 1.107 0 0 0-0.954 0.554L36.356 71.3a3.868 3.868 0 0 0-0.722-0.07 3.79 3.79 0 1 0 2.679 1.109l3.49-6.042H46.4V83.133A11.7 11.7 0 0 1 34.349 92.483Z" fill-rule="evenodd" fill="#ffffff" data-fill-palette-color="quaternary"></path></svg></g></svg></g></svg></g></svg></g><g></g></svg></g><defs></defs></svg><rect width="395.52" height="109.25848163009826" fill="none" stroke="none" visibility="hidden"></rect></g></svg></g></svg>